<svg xmlns="http://www.w3.org/2000/svg" width="16" height="16" viewBox="0 0 16 16"><rect width="100%" height="100%" fill="#007bff"/><path fill="#FFFFFF" d="M2.16 7.42h.5v2.05h-.5zm.56-.6q0 .06-.02.12-.03.06-.07.1t-.1.06q-.06.03-.12.03-.07 0-.13-.03-.05-.02-.1-.06-.04-.04-.06-.1-.03-.06-.03-.12 0-.07.03-.12.02-.06.06-.1.05-.05.1-.07.06-.03.13-.03.06 0 .12.03.06.02.1.07.04.04.07.1.02.05.02.12m2.04.85-.13.18q-.02.03-.04.05-.02.01-.06.01t-.08-.02q-.03-.02-.08-.05t-.12-.06q-.07-.02-.17-.02-.13 0-.23.05t-.16.13q-.07.09-.1.22-.03.12-.03.28t.03.29q.04.13.1.22.07.08.16.13.1.04.22.04.11 0 .19-.03.07-.02.12-.06.05-.03.09-.06.03-.03.08-.03.06 0 .09.04l.14.18q-.08.1-.18.17-.09.06-.2.1-.1.04-.21.05-.11.02-.22.02-.18 0-.35-.07t-.3-.21q-.12-.13-.2-.33-.07-.2-.07-.45 0-.23.07-.42.06-.19.19-.33.12-.14.31-.22.18-.08.43-.08.23 0 .4.07t.31.21M6 7.39q.23 0 .41.07.19.07.32.21.14.14.21.33.07.2.07.44t-.07.44-.21.33q-.13.14-.32.22-.18.07-.41.07t-.42-.07q-.19-.08-.32-.22-.13-.13-.21-.33-.07-.2-.07-.44T5.05 8q.08-.19.21-.33t.32-.21.42-.07m0 1.73q.25 0 .38-.17.12-.17.12-.51 0-.33-.12-.5-.13-.18-.38-.18-.26 0-.39.18-.12.17-.12.5t.12.51q.13.17.39.17m1.82-1.61.03.16q.06-.06.13-.12.07-.05.15-.08.07-.04.16-.06t.19-.02q.17 0 .3.05.13.06.22.16.08.11.13.25t.05.31v1.31h-.5V8.16q0-.18-.08-.29-.09-.1-.27-.1-.12 0-.24.06-.11.06-.21.16v1.48h-.49V7.42h.3q.1 0 .13.09m3.13 1.59h.52v.37h-1.6V9.1h.59V7.21l-.41.35q-.04.02-.08.03-.03.01-.06 0-.03 0-.06-.02-.02-.01-.03-.03l-.16-.22.88-.75h.41zm2.67-2.52-.86 1.05-.1.12q.09-.04.18-.06.1-.03.21-.03.17 0 .32.06.16.05.27.16.12.11.2.27.07.16.07.38 0 .2-.08.38-.07.18-.2.31-.14.13-.33.21-.19.07-.41.07-.24 0-.42-.07-.18-.08-.31-.21-.14-.13-.2-.32-.07-.19-.07-.41 0-.21.08-.42.08-.22.26-.45l.69-.93q.03-.04.1-.08.07-.03.16-.03zm-.74 2.52q.11 0 .21-.04t.17-.11q.07-.08.11-.17.04-.1.04-.21 0-.13-.03-.23-.04-.1-.11-.16-.07-.07-.17-.11t-.22-.04-.21.04q-.1.04-.16.12-.07.07-.11.16-.04.1-.04.21 0 .12.03.22.04.1.1.17.07.07.16.11.1.04.23.04"/></svg>