<svg xmlns="http://www.w3.org/2000/svg" width="48" height="48" viewBox="0 0 48 48"><rect width="100%" height="100%" fill="#007bff"/><path fill="#FFFFFF" d="M9.435 22.54h1.24v5.13h-1.24zm1.41-1.5q0 .17-.07.3-.06.14-.17.25-.11.1-.25.17-.15.06-.31.06t-.31-.06q-.14-.07-.24-.17-.11-.11-.17-.25-.06-.13-.06-.3 0-.16.06-.31.06-.14.17-.25.1-.1.24-.16.15-.07.31-.07t.31.07q.14.06.25.16.11.11.17.25.07.15.07.31m5.09 2.13-.33.46q-.05.06-.11.1-.05.04-.15.04-.09 0-.18-.05-.09-.06-.22-.13-.12-.08-.29-.13-.18-.06-.43-.06-.33 0-.57.12-.25.11-.41.34-.16.21-.24.53-.08.31-.08.7 0 .41.08.74.09.31.26.53.16.22.4.33.23.12.53.12.29 0 .47-.08.19-.07.31-.16.13-.09.22-.16t.21-.07q.15 0 .22.11l.36.45q-.21.24-.45.41-.24.16-.49.26-.26.09-.54.14-.27.03-.54.03-.47 0-.89-.17-.42-.18-.74-.52-.31-.34-.5-.83-.18-.5-.18-1.13 0-.56.17-1.04.16-.49.47-.84.32-.35.78-.55.47-.2 1.07-.2.58 0 1.01.18.43.19.78.53m3.09-.71q.57 0 1.03.18.47.19.81.53.33.34.51.83t.18 1.09q0 .61-.18 1.1-.18.5-.51.84-.34.35-.81.53-.46.18-1.03.18-.58 0-1.05-.18t-.8-.53q-.33-.34-.51-.84-.19-.49-.19-1.1 0-.6.19-1.09.18-.49.51-.83t.8-.53q.47-.18 1.05-.18m0 4.33q.64 0 .95-.42.3-.44.3-1.26 0-.84-.3-1.27-.31-.43-.95-.43-.65 0-.96.43-.32.44-.32 1.27 0 .82.32 1.25.31.43.96.43m4.54-4.03.09.41q.15-.16.33-.29.17-.13.36-.22.19-.1.41-.15t.48-.05q.42 0 .75.14.32.15.54.4.22.26.33.62.11.35.11.78v3.27h-1.23V24.4q0-.46-.22-.72-.21-.26-.65-.26-.32 0-.6.14-.28.15-.53.4v3.71h-1.24v-5.13h.76q.24 0 .31.22m5.32 2.18h2.2v-2.36q0-.33.05-.74zm3.28 0h.91v.72q0 .1-.07.17-.06.07-.18.07h-.66v1.77h-1.08V25.9h-3.05q-.12 0-.22-.07-.09-.08-.12-.2l-.13-.62 3.43-4.58h1.17zm4.06 1.84q.31 0 .54-.08.23-.09.38-.25.16-.15.24-.36.08-.22.08-.47 0-.6-.33-.9t-.91-.3-.91.3-.33.9q0 .25.08.47.08.21.24.36.16.16.39.25.23.08.53.08m0-5.49q-.27 0-.47.09-.2.08-.34.22-.13.15-.19.33-.06.19-.06.39 0 .22.05.42t.18.36q.12.15.33.25.2.1.5.1t.51-.1q.2-.1.33-.25.12-.16.17-.36.06-.2.06-.42 0-.2-.07-.39-.06-.18-.19-.33-.13-.14-.33-.22-.2-.09-.48-.09m1.22 2.61q.66.21.98.66.31.44.31 1.08 0 .48-.18.87t-.51.67q-.33.27-.8.42-.46.15-1.02.15t-1.02-.15-.79-.42q-.33-.28-.52-.67-.18-.39-.18-.87 0-.64.32-1.08.31-.45.97-.66-.52-.22-.79-.63-.26-.4-.26-.97 0-.41.17-.76.17-.36.47-.62.3-.27.71-.41.42-.15.92-.15t.92.15q.42.14.72.41.3.26.47.62.16.35.16.76 0 .57-.26.97-.26.41-.79.63"/></svg>